<svg xmlns="http://www.w3.org/2000/svg" viewBox="0 0 64 64" fill="none">
  <!-- Background glow -->
  <circle cx="32" cy="32" r="30" fill="url(#gp)" opacity="0.12"/>
  <!-- Camera body -->
  <rect x="10" y="22" width="44" height="30" rx="5" fill="url(#gp2)" stroke="#00838F" stroke-width="1.5"/>
  <!-- Camera top -->
  <rect x="24" y="16" width="16" height="8" rx="2" fill="#00ACC1"/>
  <!-- Flash -->
  <rect x="42" y="18" width="8" height="5" rx="1.5" fill="#B2EBF2" stroke="#00838F" stroke-width="0.8"/>
  <!-- Lens outer -->
  <circle cx="32" cy="37" r="11" fill="#263238" stroke="#00838F" stroke-width="1.5"/>
  <!-- Lens middle -->
  <circle cx="32" cy="37" r="8" fill="#37474F"/>
  <!-- Lens inner -->
  <circle cx="32" cy="37" r="5" fill="url(#gp3)"/>
  <!-- Lens highlight -->
  <circle cx="29" cy="34" r="2" fill="rgba(255,255,255,0.4)"/>
  <!-- Shutter button -->
  <circle cx="20" cy="16" r="3" fill="#FF5252" stroke="#D32F2F" stroke-width="0.8"/>
  <!-- Heart -->
  <path d="M48 10 Q48 6 52 6 Q56 6 56 10 Q56 14 52 17 Q48 14 48 10Z" fill="#FF5252" opacity="0.8"/>
  <!-- Sparkle -->
  <path d="M12 14 l1-2 1 2 2 1-2 1-1 2-1-2-2-1z" fill="#FFD54F"/>
  <defs>
    <radialGradient id="gp"><stop offset="0%" stop-color="#00ACC1"/><stop offset="100%" stop-color="#00ACC1" stop-opacity="0"/></radialGradient>
    <linearGradient id="gp2" x1="0.5" y1="0" x2="0.5" y2="1"><stop offset="0%" stop-color="#26C6DA"/><stop offset="100%" stop-color="#0097A7"/></linearGradient>
    <radialGradient id="gp3"><stop offset="0%" stop-color="#4DD0E1"/><stop offset="60%" stop-color="#00838F"/><stop offset="100%" stop-color="#004D40"/></radialGradient>
  </defs>
</svg>
