<svg xmlns="http://www.w3.org/2000/svg" viewBox="0 0 64 64" fill="none">
  <!-- Background glow -->
  <circle cx="32" cy="32" r="30" fill="url(#gc)" opacity="0.12"/>
  <!-- Pencil body -->
  <rect x="26" y="8" width="12" height="38" rx="2" fill="url(#gc2)" stroke="#455A64" stroke-width="1"/>
  <!-- Pencil stripe -->
  <rect x="26" y="8" width="12" height="38" rx="2" fill="url(#gc3)" opacity="0.3"/>
  <!-- Pencil tip -->
  <path d="M26 46 L32 56 L38 46" fill="#FFD54F" stroke="#455A64" stroke-width="1" stroke-linejoin="round"/>
  <path d="M29 46 L32 52 L35 46" fill="#FFAB40"/>
  <!-- Pencil tip point -->
  <circle cx="32" cy="54" r="1" fill="#455A64"/>
  <!-- Pencil top (eraser) -->
  <rect x="27" y="6" width="10" height="5" rx="1" fill="#FF8A80"/>
  <rect x="27" y="6" width="10" height="2" rx="1" fill="#FFAB91" opacity="0.5"/>
  <!-- Metal band -->
  <rect x="26" y="10" width="12" height="3" fill="#B0BEC5" stroke="#78909C" stroke-width="0.5"/>
  <!-- Rainbow sparkle trail -->
  <circle cx="20" cy="40" r="2" fill="#FF5252" opacity="0.6"/>
  <circle cx="16" cy="34" r="1.5" fill="#FF9800" opacity="0.6"/>
  <circle cx="14" cy="28" r="1.8" fill="#FFD54F" opacity="0.6"/>
  <circle cx="16" cy="22" r="1.5" fill="#4CAF50" opacity="0.6"/>
  <circle cx="20" cy="16" r="1.8" fill="#2196F3" opacity="0.6"/>
  <circle cx="44" cy="40" r="2" fill="#E040FB" opacity="0.6"/>
  <circle cx="48" cy="34" r="1.5" fill="#00BCD4" opacity="0.6"/>
  <circle cx="50" cy="28" r="1.8" fill="#69F0AE" opacity="0.6"/>
  <!-- Star -->
  <path d="M46 18 l1.5-3 1.5 3 3 1.5-3 1.5-1.5 3-1.5-3-3-1.5z" fill="#FFD54F"/>
  <path d="M10 44 l1-2 1 2 2 1-2 1-1 2-1-2-2-1z" fill="#FF80AB"/>
  <defs>
    <radialGradient id="gc"><stop offset="0%" stop-color="#546E7A"/><stop offset="100%" stop-color="#546E7A" stop-opacity="0"/></radialGradient>
    <linearGradient id="gc2" x1="0" y1="0" x2="1" y2="0"><stop offset="0%" stop-color="#78909C"/><stop offset="100%" stop-color="#546E7A"/></linearGradient>
    <linearGradient id="gc3" x1="0" y1="0" x2="1" y2="0"><stop offset="0%" stop-color="#fff" stop-opacity="0.4"/><stop offset="50%" stop-color="#fff" stop-opacity="0"/><stop offset="100%" stop-color="#fff" stop-opacity="0.2"/></linearGradient>
  </defs>
</svg>
