<svg xmlns="http://www.w3.org/2000/svg" viewBox="0 0 64 64" fill="none">
  <!-- Background glow -->
  <circle cx="32" cy="32" r="30" fill="url(#ga)" opacity="0.12"/>
  <!-- Party hat -->
  <path d="M32 8 L18 44 L46 44 Z" fill="url(#ga2)" stroke="#0288D1" stroke-width="1.5" stroke-linejoin="round"/>
  <!-- Hat stripes -->
  <path d="M27 28 L32 8 L37 28" fill="#FF7043" opacity="0.6"/>
  <path d="M23 36 L32 8 L41 36" fill="#FFD54F" opacity="0.4"/>
  <!-- Hat pom-pom -->
  <circle cx="32" cy="8" r="3.5" fill="#FF5252"/>
  <circle cx="32" cy="8" r="2" fill="#FF8A80"/>
  <!-- Hat brim -->
  <ellipse cx="32" cy="44" rx="16" ry="3" fill="#0277BD"/>
  <!-- Confetti pieces -->
  <rect x="10" y="20" width="4" height="4" rx="1" fill="#FF5252" transform="rotate(25 12 22)"/>
  <rect x="48" y="18" width="4" height="4" rx="1" fill="#FFD54F" transform="rotate(-15 50 20)"/>
  <rect x="12" y="36" width="3" height="3" rx="0.5" fill="#4CAF50" transform="rotate(40 13 37)"/>
  <rect x="50" y="32" width="3" height="3" rx="0.5" fill="#E040FB" transform="rotate(-30 51 33)"/>
  <circle cx="8" cy="28" r="2" fill="#2196F3"/>
  <circle cx="54" cy="26" r="2" fill="#FF9800"/>
  <!-- Streamers -->
  <path d="M18 44 Q14 50 10 48 Q6 52 4 50" stroke="#FF5252" stroke-width="1.5" fill="none" stroke-linecap="round"/>
  <path d="M46 44 Q50 50 54 48 Q58 52 60 50" stroke="#4CAF50" stroke-width="1.5" fill="none" stroke-linecap="round"/>
  <!-- Stars -->
  <path d="M52 12 l1-2 1 2 2 1-2 1-1 2-1-2-2-1z" fill="#FFD54F"/>
  <path d="M8 14 l1-2 1 2 2 1-2 1-1 2-1-2-2-1z" fill="#FF80AB"/>
  <defs>
    <radialGradient id="ga"><stop offset="0%" stop-color="#039BE5"/><stop offset="100%" stop-color="#039BE5" stop-opacity="0"/></radialGradient>
    <linearGradient id="ga2" x1="0.5" y1="0" x2="0.5" y2="1"><stop offset="0%" stop-color="#4FC3F7"/><stop offset="100%" stop-color="#0288D1"/></linearGradient>
  </defs>
</svg>
