<svg xmlns="http://www.w3.org/2000/svg" viewBox="0 0 64 64" fill="none">
  <!-- Background glow -->
  <circle cx="32" cy="32" r="30" fill="url(#gm)" opacity="0.12"/>
  <!-- Palette -->
  <path d="M12 32 Q12 14 32 14 Q52 14 52 32 Q52 50 32 50 Q18 50 12 32Z" fill="url(#gm2)" stroke="#558B2F" stroke-width="1.5"/>
  <!-- Palette hole -->
  <ellipse cx="22" cy="36" rx="4" ry="4.5" fill="#F5F5DC" stroke="#689F38" stroke-width="0.8"/>
  <!-- Paint blobs -->
  <circle cx="24" cy="20" r="4" fill="#FF5252"/>
  <circle cx="24" cy="20" r="2.5" fill="#FF8A80" opacity="0.6"/>
  <circle cx="36" cy="18" r="3.5" fill="#2196F3"/>
  <circle cx="36" cy="18" r="2" fill="#64B5F6" opacity="0.6"/>
  <circle cx="44" cy="24" r="3.5" fill="#FFD54F"/>
  <circle cx="44" cy="24" r="2" fill="#FFF176" opacity="0.6"/>
  <circle cx="46" cy="34" r="3" fill="#4CAF50"/>
  <circle cx="46" cy="34" r="1.8" fill="#81C784" opacity="0.6"/>
  <circle cx="40" cy="42" r="3" fill="#E040FB"/>
  <circle cx="40" cy="42" r="1.8" fill="#EA80FC" opacity="0.6"/>
  <!-- Paintbrush -->
  <line x1="42" y1="8" x2="30" y2="30" stroke="#8D6E63" stroke-width="3" stroke-linecap="round"/>
  <!-- Brush tip -->
  <ellipse cx="30" cy="30" rx="3" ry="5" fill="#FF7043" transform="rotate(-35 30 30)"/>
  <!-- Paint drops -->
  <circle cx="34" cy="32" r="1.2" fill="#FF7043" opacity="0.7"/>
  <circle cx="28" cy="34" r="0.8" fill="#FF7043" opacity="0.5"/>
  <defs>
    <radialGradient id="gm"><stop offset="0%" stop-color="#7CB342"/><stop offset="100%" stop-color="#7CB342" stop-opacity="0"/></radialGradient>
    <linearGradient id="gm2" x1="0" y1="0" x2="1" y2="1"><stop offset="0%" stop-color="#AED581"/><stop offset="100%" stop-color="#7CB342"/></linearGradient>
  </defs>
</svg>
