<svg xmlns="http://www.w3.org/2000/svg" viewBox="0 0 64 64" fill="none">
  <!-- Background circle -->
  <circle cx="32" cy="32" r="30" fill="url(#gq)" opacity="0.15"/>
  <!-- Treasure map -->
  <rect x="14" y="16" width="36" height="32" rx="3" fill="#F5E6C8" stroke="#C8A96E" stroke-width="1.5"/>
  <rect x="14" y="16" width="36" height="32" rx="3" fill="url(#gq2)" opacity="0.3"/>
  <!-- Map folds -->
  <line x1="28" y1="16" x2="28" y2="48" stroke="#C8A96E" stroke-width="0.8" stroke-dasharray="2 2"/>
  <line x1="40" y1="16" x2="40" y2="48" stroke="#C8A96E" stroke-width="0.8" stroke-dasharray="2 2"/>
  <!-- Path on map -->
  <path d="M20 40 Q24 35 28 38 Q32 42 36 36 Q40 30 44 34" stroke="#9C27B0" stroke-width="2" stroke-linecap="round" fill="none" stroke-dasharray="3 2"/>
  <!-- X marks the spot -->
  <path d="M42 24 L46 28 M46 24 L42 28" stroke="#E53935" stroke-width="2.5" stroke-linecap="round"/>
  <!-- Magnifying glass -->
  <circle cx="22" cy="26" r="5" stroke="#7B1FA2" stroke-width="2" fill="rgba(156,39,176,0.1)"/>
  <line x1="25.5" y1="29.5" x2="29" y2="33" stroke="#7B1FA2" stroke-width="2" stroke-linecap="round"/>
  <!-- Star sparkle -->
  <path d="M36 22 l1.5-3 1.5 3 3 1.5-3 1.5-1.5 3-1.5-3-3-1.5z" fill="#FFD54F"/>
  <defs>
    <radialGradient id="gq"><stop offset="0%" stop-color="#9C27B0"/><stop offset="100%" stop-color="#9C27B0" stop-opacity="0"/></radialGradient>
    <linearGradient id="gq2" x1="0" y1="0" x2="1" y2="1"><stop offset="0%" stop-color="#fff" stop-opacity="0.5"/><stop offset="100%" stop-color="#C8A96E" stop-opacity="0.1"/></linearGradient>
  </defs>
</svg>
